name D:\school\WTK\thesis\model\3dpredictsim\Results\batch_windlass\Pog_s1_tmt_bCst_d05_k1000_WL10_ig24_act_TTC.mot
datacolumns 128
datarows 4
range 1.17923820 1.21461535
endheader
time	pelvis_tilt	pelvis_list	pelvis_rotation	pelvis_tx	pelvis_ty	pelvis_tz	hip_flexion_l	hip_adduction_l	hip_rotation_l	hip_flexion_r	hip_adduction_r	hip_rotation_r	knee_angle_l	knee_angle_r	ankle_angle_l	ankle_angle_r	subtalar_angle_l	subtalar_angle_r	tmt_angle_l	tmt_angle_r	mtp_angle_l	mtp_angle_r	lumbar_extension	lumbar_bending	lumbar_rotation	arm_flex_l	arm_add_l	arm_rot_l	arm_flex_r	arm_add_r	arm_rot_r	elbow_flex_l	elbow_flex_r	pro_sup_l	pro_sup_r	glut_med1_l/activation	glut_med2_l/activation	glut_med3_l/activation	glut_min1_l/activation	glut_min2_l/activation	glut_min3_l/activation	semimem_l/activation	semiten_l/activation	bifemlh_l/activation	bifemsh_l/activation	sar_l/activation	add_long_l/activation	add_brev_l/activation	add_mag1_l/activation	add_mag2_l/activation	add_mag3_l/activation	tfl_l/activation	pect_l/activation	grac_l/activation	glut_max1_l/activation	glut_max2_l/activation	glut_max3_l/activation	iliacus_l/activation	psoas_l/activation	quad_fem_l/activation	gem_l/activation	peri_l/activation	rect_fem_l/activation	vas_med_l/activation	vas_int_l/activation	vas_lat_l/activation	med_gas_l/activation	lat_gas_l/activation	soleus_l/activation	tib_post_l/activation	flex_dig_l/activation	flex_hal_l/activation	tib_ant_l/activation	per_brev_l/activation	per_long_l/activation	per_tert_l/activation	ext_dig_l/activation	ext_hal_l/activation	ercspn_l/activation	intobl_l/activation	extobl_l/activation	glut_med1_r/activation	glut_med2_r/activation	glut_med3_r/activation	glut_min1_r/activation	glut_min2_r/activation	glut_min3_r/activation	semimem_r/activation	semiten_r/activation	bifemlh_r/activation	bifemsh_r/activation	sar_r/activation	add_long_r/activation	add_brev_r/activation	add_mag1_r/activation	add_mag2_r/activation	add_mag3_r/activation	tfl_r/activation	pect_r/activation	grac_r/activation	glut_max1_r/activation	glut_max2_r/activation	glut_max3_r/activation	iliacus_r/activation	psoas_r/activation	quad_fem_r/activation	gem_r/activation	peri_r/activation	rect_fem_r/activation	vas_med_r/activation	vas_int_r/activation	vas_lat_r/activation	med_gas_r/activation	lat_gas_r/activation	soleus_r/activation	tib_post_r/activation	flex_dig_r/activation	flex_hal_r/activation	tib_ant_r/activation	per_brev_r/activation	per_long_r/activation	per_tert_r/activation	ext_dig_r/activation	ext_hal_r/activation	ercspn_r/activation	intobl_r/activation	extobl_r/activation	
          1.17923820	         -2.92494970	         -0.43370963	          8.43959389	          1.47404775	          0.85845643	         -0.00092469	        -15.66644755	         -2.40226503	          8.47512248	         32.76533308	         -0.53808506	         -0.23907821	        -17.19323679	        -20.84533097	        -12.61638109	         -0.49422015	         18.58450138	          7.08852600	         -3.08564275	         -0.02168077	         33.84690736	          0.39937992	          1.02084555	         -2.43452057	         -2.66742714	          3.23009974	        -13.47155726	         16.01257457	        -14.11385742	        -13.76019736	         13.35020990	         40.34545616	         18.38056070	         86.51662706	         86.51662706	          0.13955225	          0.07831859	          0.05982555	          0.17928655	          0.12599802	          0.08564410	          0.05000347	          0.05000031	          0.05000043	          0.05000012	          0.07203399	          0.09845686	          0.07536814	          0.07046671	          0.05007731	          0.05982690	          0.16032189	          0.05000280	          0.05000077	          0.05006428	          0.05066103	          0.05983077	          0.28953785	          0.49554542	          0.05000199	          0.05001742	          0.05982754	          0.25137056	          0.05982759	          0.06478671	          0.05982768	          0.13683871	          0.20479176	          0.05000002	          0.14339425	          0.16048531	          0.16954148	          0.17552355	          0.52979589	          0.39110435	          0.46813248	          0.38895957	          0.17370163	          0.05000002	          0.05062954	          0.05000012	          0.05002926	          0.05982487	          0.05982604	          0.05982757	          0.05076727	          0.05000697	          0.11965649	          0.06318084	          0.13681322	          0.05982822	          0.05000169	          0.07081020	          0.08429253	          0.11532652	          0.12145917	          0.11149292	          0.05002137	          0.05000761	          0.10416799	          0.05982628	          0.06685347	          0.10380931	          0.07300265	          0.06967122	          0.13866133	          0.05984131	          0.05000558	          0.05000062	          0.05000090	          0.06737915	          0.06994893	          0.07677523	          0.07158694	          0.07158535	          0.05982694	          0.05982748	          0.05982780	          0.40572861	          0.22626175	          0.14217450	          0.11332042	          0.47348984	          0.13854950	          0.05000008	          0.13229622	          0.13298956	
          1.19103058	         -2.91165110	         -0.37396141	          8.61026447	          1.49298917	          0.85700716	         -0.00060968	        -15.69444664	         -2.56984186	          8.23433744	         32.29862176	         -0.33539224	         -0.02662683	        -18.59806341	        -20.92358692	        -15.44441217	         -0.82550314	         18.85992664	          6.62214304	         -3.43490390	         -0.03424297	         34.76271855	          0.49115768	          1.25256872	         -2.25902348	         -2.74211476	          2.87710668	        -13.50943355	         16.28151876	        -15.45892103	        -13.73668965	         13.47696360	         41.24412690	         18.36959267	         86.51662706	         86.51662706	          0.11662996	          0.06545444	          0.05000030	          0.14983770	          0.10530212	          0.07157682	          0.05005003	          0.06674060	          0.07158468	          0.05982715	          0.06020426	          0.18123312	          0.25890583	          0.18288580	          0.05020160	          0.05000186	          0.13398805	          0.10822575	          0.07446211	          0.05000346	          0.05000204	          0.05000421	          0.24197938	          0.41414909	          0.05403560	          0.05000449	          0.05000113	          0.21008126	          0.05000055	          0.05414511	          0.05000062	          0.11436204	          0.17115335	          0.05000003	          0.11984079	          0.13412460	          0.14169320	          0.39578325	          0.48003226	          0.35937822	          0.70222814	          0.50236177	          0.35562269	          0.05000010	          0.05000009	          0.06382422	          0.09370568	          0.05000034	          0.05000025	          0.05000331	          0.05000165	          0.05000170	          0.10248852	          0.05280309	          0.11434163	          0.05000111	          0.05000220	          0.08565586	          0.11167484	          0.22257224	          0.19156939	          0.14869589	          0.05000062	          0.07162010	          0.08705814	          0.05000047	          0.12329144	          0.15908880	          0.06101265	          0.05822758	          0.11588899	          0.05001494	          0.05000441	          0.05468835	          0.17450851	          0.17120087	          0.15649886	          0.06416439	          0.05982832	          0.05982698	          0.05000003	          0.05000063	          0.05000090	          0.58643941	          0.18909679	          0.11882141	          0.50358285	          0.59581870	          0.37767876	          0.05000014	          0.11056569	          0.11114514	
          1.20282297	         -2.89135648	         -0.32116959	          8.74349130	          1.51203745	          0.85502772	         -0.00029983	        -15.47766079	         -2.69406346	          8.00649075	         31.72152339	         -0.07865420	          0.25752904	        -20.53167432	        -21.62447339	        -17.74003354	         -1.05901677	         19.07828592	          6.13336298	         -3.53197978	         -0.04781939	         34.06327578	          0.65357112	          1.48203198	         -2.05704399	         -2.80124544	          2.48050770	        -13.57108737	         16.50664053	        -16.76205309	        -13.73000219	         13.67889155	         42.13987711	         18.30443184	         86.51662706	         86.51662706	          0.09747281	          0.05982679	          0.05982706	          0.12522604	          0.08800567	          0.05982628	          0.05000602	          0.05577832	          0.05982698	          0.05000039	          0.05031590	          0.18906768	          0.33241418	          0.19616245	          0.10279420	          0.11632854	          0.11197977	          0.09046202	          0.06223169	          0.05775942	          0.05982473	          0.05982828	          0.20223269	          0.39434571	          0.05982742	          0.05982762	          0.05005035	          0.17557403	          0.12285966	          0.05000079	          0.05982793	          0.09557731	          0.14304028	          0.05000004	          0.10015616	          0.11209385	          0.11841921	          0.33077348	          0.40118387	          0.30034807	          0.58688321	          0.63038706	          0.29720959	          0.07888276	          0.05982707	          0.05334117	          0.19877626	          0.15626554	          0.24376446	          0.05000113	          0.05000105	          0.05000164	          0.08565414	          0.05000021	          0.09556029	          0.05000053	          0.05000223	          0.07158652	          0.09333165	          0.18601653	          0.21793075	          0.16322888	          0.05000112	          0.05985855	          0.07276326	          0.13559696	          0.16928100	          0.17552615	          0.05982651	          0.05813485	          0.17184443	          0.05000141	          0.09770579	          0.05982694	          0.30750139	          0.28876047	          0.25948214	          0.05362497	          0.05000114	          0.05000001	          0.10712901	          0.05000094	          0.05000032	          0.54486545	          0.15803640	          0.09930422	          0.42086640	          0.49795159	          0.31564264	          0.05000006	          0.09240454	          0.09288881	
          1.21461535	         -2.86698736	         -0.27265441	          8.83691026	          1.53104111	          0.85278287	         -0.00000424	        -15.06476578	         -2.79319869	          7.79707833	         30.95062757	          0.19908705	          0.59062366	        -22.84155474	        -22.59330405	        -19.61015660	         -0.91765529	         19.22573170	          5.61378862	         -3.39081946	         -0.35058556	         31.72005201	          0.60444501	          1.70438957	         -1.83804740	         -2.84451448	          2.06945590	        -13.64363731	         16.70193024	        -17.97407560	        -13.73132785	         13.97513351	         42.98170464	         18.14185382	         86.51662706	         86.51662706	          0.16482684	          0.05000019	          0.05000013	          0.10465807	          0.07355031	          0.05000041	          0.05296349	          0.05000028	          0.05000050	          0.05000024	          0.05000358	          0.16178105	          0.27781416	          0.16394190	          0.08591071	          0.09722134	          0.09358667	          0.07564241	          0.05200999	          0.05000149	          0.05000111	          0.05000146	          0.16901469	          0.36217200	          0.05000044	          0.05000103	          0.05000018	          0.14673484	          0.10267930	          0.07096114	          0.05000090	          0.07987811	          0.11954498	          0.05000005	          0.08370490	          0.09368190	          0.09896820	          0.30025091	          0.33528688	          0.25101410	          0.49048385	          0.70628649	          0.24839120	          0.11299455	          0.05000009	          0.05329612	          0.30721465	          0.39404256	          0.52356509	          0.09049733	          0.21667880	          0.35682364	          0.07158506	          0.07158574	          0.07986395	          0.05000233	          0.05000109	          0.05982802	          0.07800136	          0.15546228	          0.18213485	          0.16487542	          0.05000035	          0.05002724	          0.06081234	          0.29282366	          0.24814254	          0.19829023	          0.05000016	          0.05000013	          0.14695289	          0.06150032	          0.26649454	          0.05000008	          0.30045713	          0.29663378	          0.27674877	          0.05000004	          0.05000011	          0.05000010	          0.16272615	          0.05002412	          0.05044626	          0.64583181	          0.13207788	          0.08299285	          0.35173642	          0.52918152	          0.43856133	          0.05000005	          0.07722649	          0.07763121	
